<?xml version="1.0" standalone="no"?>
<!DOCTYPE svg PUBLIC "-//W3C//DTD SVG 20010904//EN"
 "http://www.w3.org/TR/2001/REC-SVG-20010904/DTD/svg10.dtd">
<svg version="1.0" xmlns="http://www.w3.org/2000/svg"
 width="64.000000pt" height="64.000000pt" viewBox="0 0 64.000000 64.000000"
 preserveAspectRatio="xMidYMid meet">

<g transform="translate(0.000000,64.000000) scale(0.100000,-0.100000)"
fill="#000000" stroke="none">
<path d="M137 603 c-4 -3 -7 -15 -7 -25 0 -15 -8 -18 -48 -18 -26 0 -53 -5
-60 -12 -17 -17 -17 -389 0 -406 7 -7 44 -12 95 -12 91 0 90 1 72 -62 -9 -33
-14 -38 -39 -38 -17 0 -30 -4 -30 -10 0 -6 62 -10 165 -10 103 0 165 4 165 10
0 6 -13 10 -29 10 -26 0 -31 5 -45 47 -9 26 -16 48 -16 50 0 2 42 3 93 3 59 0
97 4 105 12 17 17 17 389 0 406 -7 7 -36 12 -65 12 -50 0 -53 1 -53 25 l0 25
-148 0 c-82 0 -152 -3 -155 -7z m43 -57 c0 -32 1 -33 40 -33 39 0 40 1 40 33
l0 34 80 0 80 0 0 -150 0 -150 -130 0 -130 0 0 150 c0 93 4 150 10 150 6 0 10
-15 10 -34z m50 24 c0 -5 -4 -10 -10 -10 -5 0 -10 5 -10 10 0 6 5 10 10 10 6
0 10 -4 10 -10z m-100 -45 c0 -10 -11 -15 -35 -15 l-35 0 0 -135 c0 -113 -2
-135 -15 -135 -13 0 -15 23 -15 144 0 158 -2 154 63 155 27 1 37 -3 37 -14z
m404 9 c23 -9 24 -294 1 -294 -12 0 -15 24 -17 133 l-3 132 -32 3 c-46 5 -45
32 1 32 19 0 41 -3 50 -6z m-404 -164 l0 -110 155 0 155 0 0 64 c0 35 3 84 6
110 6 40 10 46 30 46 24 0 24 -1 24 -120 l0 -120 -175 0 c-149 0 -175 -2 -175
-15 0 -13 29 -15 201 -15 l200 0 -3 -27 -3 -28 -255 0 -255 0 -3 28 c-3 25 -1
27 37 27 44 0 65 18 32 27 -20 5 -21 12 -21 124 l0 119 25 0 25 0 0 -110z
m210 -265 c29 -77 30 -75 -54 -75 -83 0 -83 0 -64 61 11 38 12 39 60 39 43 0
50 -3 58 -25z"/>
<path d="M312 548 c-7 -7 -12 -21 -12 -32 0 -11 -7 -27 -16 -37 -10 -11 -14
-25 -9 -36 6 -16 8 -15 21 10 8 15 23 27 33 27 11 0 29 -12 40 -27 l20 -28 1
27 c0 15 -4 30 -10 33 -5 3 -10 16 -10 29 0 24 -17 46 -35 46 -6 0 -16 -5 -23
-12z m28 -28 c0 -5 -4 -10 -10 -10 -5 0 -10 5 -10 10 0 6 5 10 10 10 6 0 10
-4 10 -10z"/>
<path d="M200 380 c0 -5 5 -10 10 -10 6 0 10 5 10 10 0 6 -4 10 -10 10 -5 0
-10 -4 -10 -10z"/>
<path d="M230 380 c0 -5 7 -10 15 -10 8 0 15 5 15 10 0 6 -7 10 -15 10 -8 0
-15 -4 -15 -10z"/>
<path d="M270 380 c0 -5 7 -10 15 -10 8 0 15 5 15 10 0 6 -7 10 -15 10 -8 0
-15 -4 -15 -10z"/>
<path d="M187 353 c-13 -12 -7 -51 9 -57 9 -3 53 -6 99 -6 89 0 112 11 100 50
-6 18 -14 20 -104 20 -54 0 -101 -3 -104 -7z m146 -30 c-24 -2 -62 -2 -86 0
-23 2 -4 4 43 4 47 0 66 -2 43 -4z"/>
<path d="M272 191 c2 -7 7 -12 11 -12 12 1 9 15 -3 20 -7 2 -11 -2 -8 -8z"/>
<path d="M10 95 c0 -10 11 -15 35 -15 24 0 35 5 35 15 0 10 -11 15 -35 15 -24
0 -35 -5 -35 -15z"/>
<path d="M510 95 c0 -12 7 -15 25 -13 33 4 33 22 0 26 -18 2 -25 -1 -25 -13z"/>
<path d="M13 58 c5 -18 119 -18 125 0 3 9 -14 12 -63 12 -49 0 -66 -3 -62 -12z"/>
<path d="M435 60 c-3 -5 5 -12 18 -15 37 -10 110 -1 115 13 5 15 -123 18 -133
2z"/>
</g>
</svg>
